<mxfile host="65bd71144e">
    <diagram id="nMlvxX9G4jbC1tGilSWU" name="第 1 页">
        <mxGraphModel dx="764" dy="650" grid="1" gridSize="10" guides="1" tooltips="1" connect="1" arrows="1" fold="1" page="1" pageScale="1" pageWidth="827" pageHeight="1169" math="0" shadow="0">
            <root>
                <mxCell id="0"/>
                <mxCell id="1" parent="0"/>
                <mxCell id="2" value="" style="rounded=0;whiteSpace=wrap;html=1;fillColor=#dae8fc;strokeColor=#6c8ebf;" parent="1" vertex="1">
                    <mxGeometry x="80" y="120" width="640" height="50" as="geometry"/>
                </mxCell>
                <mxCell id="13" style="edgeStyle=orthogonalEdgeStyle;html=1;exitX=0.5;exitY=1;exitDx=0;exitDy=0;entryX=0.5;entryY=0;entryDx=0;entryDy=0;fillColor=#f5f5f5;strokeColor=#666666;" parent="1" source="3" target="11" edge="1">
                    <mxGeometry relative="1" as="geometry"/>
                </mxCell>
                <mxCell id="3" value="FFFF/0000" style="rounded=0;whiteSpace=wrap;html=1;fillColor=#f5f5f5;fontColor=#333333;strokeColor=#666666;fontFamily=Menlo;fontSize=18;" parent="1" vertex="1">
                    <mxGeometry x="80" y="120" width="160" height="50" as="geometry"/>
                </mxCell>
                <mxCell id="18" style="edgeStyle=orthogonalEdgeStyle;html=1;exitX=0.5;exitY=1;exitDx=0;exitDy=0;entryX=0;entryY=0.5;entryDx=0;entryDy=0;fontFamily=Menlo;fontSize=18;fillColor=#f5f5f5;strokeColor=#666666;" parent="1" source="4" target="17" edge="1">
                    <mxGeometry relative="1" as="geometry">
                        <Array as="points">
                            <mxPoint x="285" y="205"/>
                            <mxPoint x="200" y="205"/>
                            <mxPoint x="200" y="340"/>
                        </Array>
                    </mxGeometry>
                </mxCell>
                <mxCell id="4" value="L0索引" style="rounded=0;whiteSpace=wrap;html=1;fillColor=#d5e8d4;strokeColor=#82b366;fontFamily=Menlo;fontSize=18;" parent="1" vertex="1">
                    <mxGeometry x="240" y="120" width="90" height="50" as="geometry"/>
                </mxCell>
                <mxCell id="24" style="edgeStyle=orthogonalEdgeStyle;html=1;exitX=0.5;exitY=1;exitDx=0;exitDy=0;entryX=0;entryY=0.5;entryDx=0;entryDy=0;fontFamily=Menlo;fontSize=18;fillColor=#f5f5f5;strokeColor=#666666;" parent="1" source="5" target="22" edge="1">
                    <mxGeometry relative="1" as="geometry">
                        <Array as="points">
                            <mxPoint x="375" y="205"/>
                            <mxPoint x="330" y="205"/>
                            <mxPoint x="330" y="370"/>
                        </Array>
                    </mxGeometry>
                </mxCell>
                <mxCell id="5" value="L1索引" style="rounded=0;whiteSpace=wrap;html=1;fillColor=#d5e8d4;strokeColor=#82b366;fontFamily=Menlo;fontSize=18;" parent="1" vertex="1">
                    <mxGeometry x="330" y="120" width="90" height="50" as="geometry"/>
                </mxCell>
                <mxCell id="42" style="edgeStyle=orthogonalEdgeStyle;html=1;exitX=0.5;exitY=1;exitDx=0;exitDy=0;entryX=0;entryY=0.5;entryDx=0;entryDy=0;fontFamily=Menlo;fontSize=18;fillColor=#f5f5f5;strokeColor=#666666;" parent="1" source="6" target="30" edge="1">
                    <mxGeometry relative="1" as="geometry"/>
                </mxCell>
                <mxCell id="6" value="L2索引" style="rounded=0;whiteSpace=wrap;html=1;fillColor=#d5e8d4;strokeColor=#82b366;fontFamily=Menlo;fontSize=18;" parent="1" vertex="1">
                    <mxGeometry x="420" y="120" width="90" height="50" as="geometry"/>
                </mxCell>
                <mxCell id="46" style="edgeStyle=orthogonalEdgeStyle;html=1;exitX=0.5;exitY=1;exitDx=0;exitDy=0;entryX=0;entryY=0.5;entryDx=0;entryDy=0;fontFamily=Menlo;fontSize=18;fillColor=#f5f5f5;strokeColor=#666666;" parent="1" source="7" target="38" edge="1">
                    <mxGeometry relative="1" as="geometry">
                        <Array as="points">
                            <mxPoint x="555" y="240"/>
                            <mxPoint x="590" y="240"/>
                            <mxPoint x="590" y="350"/>
                        </Array>
                    </mxGeometry>
                </mxCell>
                <mxCell id="7" value="L3索引" style="rounded=0;whiteSpace=wrap;html=1;fillColor=#d5e8d4;strokeColor=#82b366;fontFamily=Menlo;fontSize=18;" parent="1" vertex="1">
                    <mxGeometry x="510" y="120" width="90" height="50" as="geometry"/>
                </mxCell>
                <mxCell id="8" value="页内偏移" style="rounded=0;whiteSpace=wrap;html=1;fillColor=none;strokeColor=#6c8ebf;fontFamily=Menlo;fontSize=18;" parent="1" vertex="1">
                    <mxGeometry x="600" y="120" width="120" height="50" as="geometry"/>
                </mxCell>
                <mxCell id="19" style="edgeStyle=orthogonalEdgeStyle;html=1;exitX=1;exitY=0.5;exitDx=0;exitDy=0;entryX=0;entryY=0;entryDx=0;entryDy=0;fontFamily=Menlo;fontSize=18;fillColor=#f5f5f5;strokeColor=#666666;" parent="1" source="11" target="15" edge="1">
                    <mxGeometry relative="1" as="geometry">
                        <Array as="points">
                            <mxPoint x="190" y="300"/>
                            <mxPoint x="190" y="280"/>
                        </Array>
                    </mxGeometry>
                </mxCell>
                <mxCell id="11" value="TTBRx_EL1" style="rounded=0;whiteSpace=wrap;html=1;fillColor=#ffe6cc;strokeColor=#d79b00;fontFamily=Menlo;fontSize=18;" parent="1" vertex="1">
                    <mxGeometry x="40" y="280" width="120" height="40" as="geometry"/>
                </mxCell>
                <mxCell id="15" value="" style="rounded=0;whiteSpace=wrap;html=1;fillColor=#fff2cc;strokeColor=#d6b656;fontFamily=Menlo;fontSize=18;" parent="1" vertex="1">
                    <mxGeometry x="220" y="280" width="90" height="180" as="geometry"/>
                </mxCell>
                <mxCell id="16" value="L0页表" style="text;html=1;align=center;verticalAlign=middle;resizable=0;points=[];autosize=1;strokeColor=none;fillColor=none;fontSize=18;fontFamily=Menlo;" parent="1" vertex="1">
                    <mxGeometry x="230" y="250" width="70" height="30" as="geometry"/>
                </mxCell>
                <mxCell id="23" style="edgeStyle=orthogonalEdgeStyle;html=1;exitX=1;exitY=0.5;exitDx=0;exitDy=0;entryX=0;entryY=0;entryDx=0;entryDy=0;fontFamily=Menlo;fontSize=18;fillColor=#f5f5f5;strokeColor=#666666;" parent="1" source="17" target="20" edge="1">
                    <mxGeometry relative="1" as="geometry">
                        <Array as="points">
                            <mxPoint x="320" y="340"/>
                            <mxPoint x="320" y="280"/>
                        </Array>
                    </mxGeometry>
                </mxCell>
                <mxCell id="17" value="表条目" style="rounded=0;whiteSpace=wrap;html=1;fillColor=#d5e8d4;strokeColor=#82b366;fontFamily=Menlo;fontSize=18;" parent="1" vertex="1">
                    <mxGeometry x="220" y="320" width="90" height="40" as="geometry"/>
                </mxCell>
                <mxCell id="20" value="" style="rounded=0;whiteSpace=wrap;html=1;fillColor=#fff2cc;strokeColor=#d6b656;fontFamily=Menlo;fontSize=18;" parent="1" vertex="1">
                    <mxGeometry x="350" y="280" width="90" height="180" as="geometry"/>
                </mxCell>
                <mxCell id="21" value="L1页表" style="text;html=1;align=center;verticalAlign=middle;resizable=0;points=[];autosize=1;strokeColor=none;fillColor=none;fontSize=18;fontFamily=Menlo;" parent="1" vertex="1">
                    <mxGeometry x="360" y="250" width="70" height="30" as="geometry"/>
                </mxCell>
                <mxCell id="32" style="edgeStyle=orthogonalEdgeStyle;html=1;exitX=1;exitY=0.5;exitDx=0;exitDy=0;entryX=0;entryY=0;entryDx=0;entryDy=0;fontFamily=Menlo;fontSize=18;fillColor=#f5f5f5;strokeColor=#666666;" parent="1" source="22" target="28" edge="1">
                    <mxGeometry relative="1" as="geometry">
                        <Array as="points">
                            <mxPoint x="450" y="370"/>
                            <mxPoint x="450" y="280"/>
                        </Array>
                    </mxGeometry>
                </mxCell>
                <mxCell id="22" value="表条目" style="rounded=0;whiteSpace=wrap;html=1;fillColor=#d5e8d4;strokeColor=#82b366;fontFamily=Menlo;fontSize=18;" parent="1" vertex="1">
                    <mxGeometry x="350" y="350" width="90" height="40" as="geometry"/>
                </mxCell>
                <mxCell id="27" style="edgeStyle=orthogonalEdgeStyle;html=1;exitX=1;exitY=0.5;exitDx=0;exitDy=0;fontFamily=Menlo;fontSize=18;fillColor=#f5f5f5;strokeColor=#666666;" parent="1" source="25" target="26" edge="1">
                    <mxGeometry relative="1" as="geometry"/>
                </mxCell>
                <mxCell id="25" value="块条目" style="rounded=0;whiteSpace=wrap;html=1;fillColor=#dae8fc;strokeColor=#6c8ebf;fontFamily=Menlo;fontSize=18;" parent="1" vertex="1">
                    <mxGeometry x="350" y="410" width="90" height="40" as="geometry"/>
                </mxCell>
                <mxCell id="26" value="1GB块" style="text;html=1;align=center;verticalAlign=middle;resizable=0;points=[];autosize=1;strokeColor=none;fillColor=none;fontSize=18;fontFamily=Menlo;" parent="1" vertex="1">
                    <mxGeometry x="419" y="470" width="70" height="30" as="geometry"/>
                </mxCell>
                <mxCell id="28" value="" style="rounded=0;whiteSpace=wrap;html=1;fillColor=#fff2cc;strokeColor=#d6b656;fontFamily=Menlo;fontSize=18;" parent="1" vertex="1">
                    <mxGeometry x="480" y="279.91" width="90" height="180" as="geometry"/>
                </mxCell>
                <mxCell id="29" value="L2页表" style="text;html=1;align=center;verticalAlign=middle;resizable=0;points=[];autosize=1;strokeColor=none;fillColor=none;fontSize=18;fontFamily=Menlo;" parent="1" vertex="1">
                    <mxGeometry x="490" y="249.91" width="70" height="30" as="geometry"/>
                </mxCell>
                <mxCell id="47" style="edgeStyle=orthogonalEdgeStyle;html=1;exitX=1;exitY=0.5;exitDx=0;exitDy=0;entryX=0;entryY=0;entryDx=0;entryDy=0;fontFamily=Menlo;fontSize=18;fillColor=#f5f5f5;strokeColor=#666666;" parent="1" source="30" target="35" edge="1">
                    <mxGeometry relative="1" as="geometry">
                        <Array as="points">
                            <mxPoint x="580" y="330"/>
                            <mxPoint x="580" y="280"/>
                        </Array>
                    </mxGeometry>
                </mxCell>
                <mxCell id="30" value="表条目" style="rounded=0;whiteSpace=wrap;html=1;fillColor=#d5e8d4;strokeColor=#82b366;fontFamily=Menlo;fontSize=18;" parent="1" vertex="1">
                    <mxGeometry x="480" y="309.91" width="90" height="40" as="geometry"/>
                </mxCell>
                <mxCell id="45" style="edgeStyle=orthogonalEdgeStyle;html=1;exitX=1;exitY=0.5;exitDx=0;exitDy=0;entryX=0.467;entryY=-0.108;entryDx=0;entryDy=0;entryPerimeter=0;fontFamily=Menlo;fontSize=18;fillColor=#f5f5f5;strokeColor=#666666;" parent="1" source="31" target="33" edge="1">
                    <mxGeometry relative="1" as="geometry"/>
                </mxCell>
                <mxCell id="31" value="块条目" style="rounded=0;whiteSpace=wrap;html=1;fillColor=#dae8fc;strokeColor=#6c8ebf;fontFamily=Menlo;fontSize=18;" parent="1" vertex="1">
                    <mxGeometry x="480" y="389.91" width="90" height="40" as="geometry"/>
                </mxCell>
                <mxCell id="33" value="2MB块" style="text;html=1;align=center;verticalAlign=middle;resizable=0;points=[];autosize=1;strokeColor=none;fillColor=none;fontSize=18;fontFamily=Menlo;" parent="1" vertex="1">
                    <mxGeometry x="550" y="470" width="70" height="30" as="geometry"/>
                </mxCell>
                <mxCell id="35" value="" style="rounded=0;whiteSpace=wrap;html=1;fillColor=#fff2cc;strokeColor=#d6b656;fontFamily=Menlo;fontSize=18;" parent="1" vertex="1">
                    <mxGeometry x="610" y="280" width="90" height="180" as="geometry"/>
                </mxCell>
                <mxCell id="36" value="L3页表" style="text;html=1;align=center;verticalAlign=middle;resizable=0;points=[];autosize=1;strokeColor=none;fillColor=none;fontSize=18;fontFamily=Menlo;" parent="1" vertex="1">
                    <mxGeometry x="620" y="250" width="70" height="30" as="geometry"/>
                </mxCell>
                <mxCell id="44" style="edgeStyle=orthogonalEdgeStyle;html=1;exitX=1;exitY=0.5;exitDx=0;exitDy=0;entryX=0.499;entryY=-0.076;entryDx=0;entryDy=0;entryPerimeter=0;fontFamily=Menlo;fontSize=18;fillColor=#f5f5f5;strokeColor=#666666;" parent="1" source="38" target="43" edge="1">
                    <mxGeometry relative="1" as="geometry"/>
                </mxCell>
                <mxCell id="38" value="页条目" style="rounded=0;whiteSpace=wrap;html=1;fillColor=#dae8fc;strokeColor=#6c8ebf;fontFamily=Menlo;fontSize=18;" parent="1" vertex="1">
                    <mxGeometry x="610" y="330" width="90" height="40" as="geometry"/>
                </mxCell>
                <mxCell id="43" value="4KB页" style="text;html=1;align=center;verticalAlign=middle;resizable=0;points=[];autosize=1;strokeColor=none;fillColor=none;fontSize=18;fontFamily=Menlo;" parent="1" vertex="1">
                    <mxGeometry x="700" y="379.99999999999994" width="70" height="30" as="geometry"/>
                </mxCell>
                <mxCell id="48" value="0" style="text;html=1;align=center;verticalAlign=middle;resizable=0;points=[];autosize=1;strokeColor=none;fillColor=none;fontSize=14;fontFamily=Menlo;" parent="1" vertex="1">
                    <mxGeometry x="700" y="100" width="20" height="20" as="geometry"/>
                </mxCell>
                <mxCell id="51" value="11" style="text;html=1;align=center;verticalAlign=middle;resizable=0;points=[];autosize=1;strokeColor=none;fillColor=none;fontSize=14;fontFamily=Menlo;" parent="1" vertex="1">
                    <mxGeometry x="600" y="100" width="30" height="20" as="geometry"/>
                </mxCell>
                <mxCell id="52" value="12" style="text;html=1;align=center;verticalAlign=middle;resizable=0;points=[];autosize=1;strokeColor=none;fillColor=none;fontSize=14;fontFamily=Menlo;" parent="1" vertex="1">
                    <mxGeometry x="570" y="100" width="30" height="20" as="geometry"/>
                </mxCell>
                <mxCell id="53" value="20" style="text;html=1;align=center;verticalAlign=middle;resizable=0;points=[];autosize=1;strokeColor=none;fillColor=none;fontSize=14;fontFamily=Menlo;" parent="1" vertex="1">
                    <mxGeometry x="510" y="100" width="30" height="20" as="geometry"/>
                </mxCell>
                <mxCell id="54" value="21" style="text;html=1;align=center;verticalAlign=middle;resizable=0;points=[];autosize=1;strokeColor=none;fillColor=none;fontSize=14;fontFamily=Menlo;" parent="1" vertex="1">
                    <mxGeometry x="480" y="100" width="30" height="20" as="geometry"/>
                </mxCell>
                <mxCell id="55" value="29" style="text;html=1;align=center;verticalAlign=middle;resizable=0;points=[];autosize=1;strokeColor=none;fillColor=none;fontSize=14;fontFamily=Menlo;" parent="1" vertex="1">
                    <mxGeometry x="420" y="100" width="30" height="20" as="geometry"/>
                </mxCell>
                <mxCell id="56" value="30" style="text;html=1;align=center;verticalAlign=middle;resizable=0;points=[];autosize=1;strokeColor=none;fillColor=none;fontSize=14;fontFamily=Menlo;" parent="1" vertex="1">
                    <mxGeometry x="390" y="100" width="30" height="20" as="geometry"/>
                </mxCell>
                <mxCell id="57" value="38" style="text;html=1;align=center;verticalAlign=middle;resizable=0;points=[];autosize=1;strokeColor=none;fillColor=none;fontSize=14;fontFamily=Menlo;" parent="1" vertex="1">
                    <mxGeometry x="330" y="100" width="30" height="20" as="geometry"/>
                </mxCell>
                <mxCell id="58" value="39" style="text;html=1;align=center;verticalAlign=middle;resizable=0;points=[];autosize=1;strokeColor=none;fillColor=none;fontSize=14;fontFamily=Menlo;" parent="1" vertex="1">
                    <mxGeometry x="300" y="100" width="30" height="20" as="geometry"/>
                </mxCell>
                <mxCell id="59" value="47" style="text;html=1;align=center;verticalAlign=middle;resizable=0;points=[];autosize=1;strokeColor=none;fillColor=none;fontSize=14;fontFamily=Menlo;" parent="1" vertex="1">
                    <mxGeometry x="240" y="100" width="30" height="20" as="geometry"/>
                </mxCell>
                <mxCell id="60" value="48" style="text;html=1;align=center;verticalAlign=middle;resizable=0;points=[];autosize=1;strokeColor=none;fillColor=none;fontSize=14;fontFamily=Menlo;" parent="1" vertex="1">
                    <mxGeometry x="210" y="100" width="30" height="20" as="geometry"/>
                </mxCell>
                <mxCell id="61" value="63" style="text;html=1;align=center;verticalAlign=middle;resizable=0;points=[];autosize=1;strokeColor=none;fillColor=none;fontSize=14;fontFamily=Menlo;" parent="1" vertex="1">
                    <mxGeometry x="80" y="100" width="30" height="20" as="geometry"/>
                </mxCell>
            </root>
        </mxGraphModel>
    </diagram>
</mxfile>